<svg width="85" height="85" viewBox="0 0 85 85" fill="none" xmlns="http://www.w3.org/2000/svg">
<path d="M47.4068 12.2447C48.148 11.9407 48.7941 12.2061 49.5271 12.4296C49.687 12.4755 49.8469 12.5213 50.0116 12.5686C56.8245 14.5686 63.6985 18.8386 67.4813 25.0147C67.5458 25.1363 67.6102 25.2579 67.6766 25.3831C67.1035 25.9658 66.5052 26.3135 65.7805 26.6868C65.5415 26.8105 65.3024 26.9341 65.0561 27.0615C64.7984 27.1932 64.5407 27.3249 64.2752 27.4605C64.0099 27.5969 63.7447 27.7333 63.4715 27.8739C61.5622 28.8527 59.6461 29.8176 57.7254 30.7737C57.4816 30.8952 57.2378 31.0166 56.9866 31.1418C55.834 31.712 54.6831 32.262 53.4914 32.7454C53.2925 32.5685 53.0937 32.3917 52.8888 32.2095C52.0035 31.4547 51.0565 30.8181 50.0829 30.1837C49.9154 30.0724 49.7479 29.961 49.5753 29.8463C48.5415 29.1681 47.5022 28.59 46.382 28.0663C46.4284 25.391 46.5845 22.7237 46.7503 20.0535C46.8356 18.6709 46.9169 17.2897 46.9633 15.9052C46.9711 15.6895 46.9789 15.4738 46.987 15.2516C47.0003 14.8586 47.0109 14.4654 47.0183 14.0722C47.0427 13.3927 47.0728 12.8459 47.4068 12.2447Z" fill="#43AA8B"/>
<path d="M16.6 59.1263C17.1731 58.5436 17.7714 58.1959 18.4961 57.8226C18.8547 57.6371 18.8547 57.6371 19.2205 57.4478C19.4782 57.3162 19.7359 57.1845 20.0014 57.0489C20.2667 56.9125 20.5319 56.7761 20.8051 56.6355C22.7144 55.6567 24.6305 54.6918 26.5512 53.7357C26.795 53.6142 27.0388 53.4928 27.29 53.3676C28.4426 52.7974 29.5935 52.2474 30.7852 51.764C30.9841 51.9408 31.1829 52.1177 31.3878 52.2999C32.2731 53.0547 33.2201 53.6912 34.1937 54.3257C34.3612 54.437 34.5287 54.5484 34.7013 54.6631C35.7351 55.3413 36.7744 55.9194 37.8946 56.4431C37.8482 59.1184 37.6921 61.7856 37.5263 64.4559C37.441 65.8385 37.3597 67.2197 37.3133 68.6042C37.3016 68.9277 37.3016 68.9277 37.2896 69.2578C37.2763 69.6508 37.2657 70.044 37.2583 70.4372C37.2339 71.1167 37.2038 71.6635 36.8698 72.2647C36.1286 72.5687 35.4825 72.3033 34.7495 72.0798C34.5096 72.011 34.5096 72.011 34.265 71.9408C27.4521 69.9408 20.5781 65.6708 16.7953 59.4947C16.7308 59.3731 16.6664 59.2515 16.6 59.1263Z" fill="#E63946"/>
<path d="M56.3488 39.1544C56.8661 38.5356 57.5362 38.2158 58.2449 37.8507C58.6035 37.6652 58.6035 37.6652 58.9693 37.476C59.227 37.3443 59.4847 37.2127 59.7503 37.077C60.0155 36.9406 60.2807 36.8042 60.554 36.6637C62.4632 35.6849 64.3793 34.7199 66.3 33.7638C66.5439 33.6424 66.7877 33.5209 67.0389 33.3958C68.1915 32.8255 69.3423 32.2756 70.5341 31.7922C71.2742 32.6921 71.5274 33.6431 71.7852 34.7559C71.8282 34.9377 71.8712 35.1195 71.9155 35.3068C73.5846 42.5209 72.4991 49.276 69.3654 55.9291C64.934 53.0125 60.5025 50.0959 55.9367 47.0909C56.1685 46.0292 56.4002 44.9676 56.639 43.8738C56.7674 41.8286 56.7674 41.8286 56.4757 39.8217C56.4338 39.6015 56.3919 39.3813 56.3488 39.1544Z" fill="#5778D8"/>
<path d="M44.8202 56.7095C45.3131 56.4217 45.7347 56.3176 46.2944 56.2049C48.447 55.6564 50.3113 54.3744 52.0375 53.0153C56.469 55.9319 60.9005 58.8485 65.4662 61.8535C60.0955 67.928 52.9579 72.2842 44.6795 72.7956C44.3698 72.6974 44.0623 72.5913 43.7596 72.4732C43.8186 70.008 43.9391 67.5548 44.1053 65.0944C44.2849 62.4836 44.2849 62.4836 44.3935 59.8691C44.3986 59.6762 44.4037 59.4832 44.409 59.2844C44.4193 58.7983 44.425 58.3121 44.4303 57.826C44.5212 57.1251 44.5212 57.1252 44.8202 56.7095Z" fill="#9B5DE5"/>
<path d="M14.9111 28.5803C19.3426 31.4969 23.7741 34.4135 28.3398 37.4185C28.1081 38.4801 27.8763 39.5418 27.6376 40.6356C27.5091 42.6808 27.5091 42.6808 27.8009 44.6877C27.8637 45.018 27.8637 45.018 27.9278 45.355C27.4105 45.9738 26.7404 46.2936 26.0316 46.6587C25.7926 46.7823 25.5535 46.906 25.3073 47.0334C25.0495 47.1651 24.7918 47.2967 24.5263 47.4324C24.2611 47.5688 23.9959 47.7052 23.7226 47.8457C21.8134 48.8245 19.8972 49.7895 17.9765 50.7456C17.7327 50.867 17.4889 50.9885 17.2377 51.1136C16.0851 51.6838 14.9343 52.2338 13.7425 52.7172C13.0024 51.8173 12.7491 50.8663 12.4914 49.7535C12.4484 49.5717 12.4054 49.3899 12.3611 49.2026C10.8584 42.7077 11.1197 34.3409 14.9111 28.5803Z" fill="#F3722C"/>
<path d="M18.8103 22.6559C24.1811 16.5814 31.3187 12.2252 39.5971 11.7138C39.9068 11.812 40.2143 11.9181 40.517 12.0362C40.4579 14.5014 40.3375 16.9546 40.1713 19.415C39.9917 22.0258 39.9917 22.0258 39.8831 24.6403C39.8779 24.8333 39.8728 25.0262 39.8676 25.225C39.8572 25.7111 39.8515 26.1973 39.8462 26.6835C39.7553 27.3843 39.7553 27.3843 39.4563 27.7999C38.9635 28.0877 38.5418 28.1918 37.9822 28.3045C35.8296 28.853 33.9653 30.135 32.239 31.4941C27.8076 28.5775 23.3761 25.6609 18.8103 22.6559Z" fill="#F9C74F"/>
</svg>
