<svg width="684" height="109" viewBox="0 0 684 109" fill="none" xmlns="http://www.w3.org/2000/svg">
<path d="M627.55 56.175H652.188L683.021 100.805H655.144L627.55 56.175ZM602.912 2.25266H626.705V100.805H602.912V2.25266ZM617.835 22.3855V2.25266H638.813C647.26 2.25266 654.3 3.61362 659.931 6.33555C665.563 9.05748 669.834 12.8588 672.743 17.7395C675.653 22.5263 677.108 28.111 677.108 34.4934C677.108 40.782 675.653 46.3667 672.743 51.2474C669.834 56.0342 665.563 59.7886 659.931 62.5105C654.3 65.2325 647.26 66.5934 638.813 66.5934H617.835V48.15H637.123C640.315 48.15 643.037 47.6807 645.289 46.7421C647.636 45.7097 649.419 44.2548 650.639 42.3776C651.859 40.4066 652.469 38.0601 652.469 35.3382C652.469 32.6162 651.859 30.3167 650.639 28.4395C649.419 26.4684 647.636 24.9667 645.289 23.9342C643.037 22.9018 640.315 22.3855 637.123 22.3855H617.835Z" fill="#DA7823"/>
<path d="M506.853 51.5289C506.853 57.3482 507.979 62.5105 510.232 67.0158C512.578 71.4272 515.816 74.9 519.946 77.4342C524.17 79.9684 529.098 81.2355 534.729 81.2355C540.267 81.2355 545.101 79.9684 549.23 77.4342C553.454 74.9 556.692 71.4272 558.945 67.0158C561.291 62.5105 562.465 57.3482 562.465 51.5289C562.465 45.7096 561.338 40.5943 559.086 36.1829C556.833 31.6776 553.642 28.1579 549.512 25.6237C545.382 23.0895 540.455 21.8224 534.729 21.8224C529.098 21.8224 524.17 23.0895 519.946 25.6237C515.816 28.1579 512.578 31.6776 510.232 36.1829C507.979 40.5943 506.853 45.7096 506.853 51.5289ZM481.652 51.5289C481.652 43.9263 482.966 36.9807 485.594 30.6921C488.316 24.4035 492.07 18.9596 496.857 14.3605C501.644 9.7614 507.275 6.24166 513.752 3.80131C520.228 1.2671 527.22 0 534.729 0C542.332 0 549.324 1.2671 555.707 3.80131C562.183 6.24166 567.815 9.7614 572.601 14.3605C577.388 18.9596 581.096 24.4035 583.724 30.6921C586.352 36.9807 587.666 43.9263 587.666 51.5289C587.666 59.1315 586.352 66.1241 583.724 72.5065C581.19 78.889 577.529 84.4267 572.742 89.1197C568.049 93.8127 562.465 97.4732 555.988 100.101C549.512 102.635 542.426 103.903 534.729 103.903C526.939 103.903 519.805 102.635 513.329 100.101C506.853 97.4732 501.221 93.8127 496.434 89.1197C491.741 84.4267 488.081 78.889 485.453 72.5065C482.919 66.1241 481.652 59.1315 481.652 51.5289Z" fill="#DA7823"/>
<path d="M405.52 23.5119V2.25266H483.518V23.5119H456.345V100.805H432.552V23.5119H405.52Z" fill="#DA7823"/>
<path d="M341.194 51.5289C341.194 57.5359 342.555 62.7451 345.276 67.1565C347.998 71.4741 351.565 74.7592 355.976 77.0118C360.482 79.2644 365.409 80.3908 370.759 80.3908C375.452 80.3908 379.582 79.7807 383.149 78.5605C386.715 77.3403 389.907 75.7447 392.723 73.7736C395.538 71.8026 398.026 69.6908 400.184 67.4381V93.0618C396.242 96.1592 391.925 98.5995 387.232 100.383C382.539 102.166 376.579 103.058 369.351 103.058C361.467 103.058 354.193 101.838 347.529 99.3973C340.865 96.957 335.14 93.4372 330.353 88.8381C325.566 84.239 321.858 78.7951 319.23 72.5065C316.602 66.218 315.288 59.2254 315.288 51.5289C315.288 43.8324 316.602 36.8399 319.23 30.5513C321.858 24.2627 325.566 18.8188 330.353 14.2197C335.14 9.62061 340.865 6.10087 347.529 3.66052C354.193 1.22017 361.467 0 369.351 0C376.579 0 382.539 0.891663 387.232 2.675C391.925 4.45833 396.242 6.89867 400.184 9.99604V35.6197C398.026 33.3671 395.538 31.2552 392.723 29.2842C389.907 27.2193 386.715 25.6237 383.149 24.4973C379.582 23.2772 375.452 22.6671 370.759 22.6671C365.409 22.6671 360.482 23.7934 355.976 26.046C351.565 28.2987 347.998 31.5838 345.276 35.9013C342.555 40.2188 341.194 45.428 341.194 51.5289Z" fill="#DA7823"/>
<path d="M251.857 100.805V81.2355H301.556V100.805H251.857ZM251.857 21.8224V2.25266H301.556V21.8224H251.857ZM251.857 58.5684V39.4211H298.74V58.5684H251.857ZM236.089 2.25266H258.897V100.805H236.089V2.25266Z" fill="#DA7823"/>
<path d="M173.811 61.1026L197.885 2.25266H225.762L173.811 107L122 2.25266H149.736L173.811 61.1026Z" fill="#DA7823"/>
<path d="M9 100L98 11M98 11H9M98 11V100" stroke="#00285D" stroke-width="17.8" stroke-linecap="round" stroke-linejoin="round"/>
</svg>
